# xmcd
#
# Track frame offsets: 
#        150
#        11655
#        20195
#        33080
#        44100
#        51615
#        62547
#        71422
#        81660
#        92857
#        102197
#        114742
#        124692
#        136475
#        148090
#        157515
#        166505
#        176467
#
# Disc length: 2477 seconds
#
# Revision: 2
# Processed by: cddbd v1.5.2PL0 Copyright (c) Steve Scherf et al.
# Submitted via: ExactAudioCopy v0.99pb5
#
DISCID=f809ab12
DTITLE=Ricky Nelson - The Original
DYEAR=1995
DGENRE=Rock and Roll
TTITLE0=Poor Little Fool
TTITLE1=Stood Up
TTITLE2=Someday (You'll Want Me To Want  You)
TTITLE3=Be True To Me
TTITLE4=Thank You Darling
TTITLE5=Young World
TTITLE6=Have I Told You Lately (That I Love You)
TTITLE7=Never Be Anyone Else But You
TTITLE8=Teenage Idol
TTITLE9=Be-Bop Baby
TTITLE10=It's Up To You
TTITLE11=Just A Little Too Much
TTITLE12=A Wonder Like You
TTITLE13=Young Emotions
TTITLE14=I Got A Feeling
TTITLE15=It's Late
TTITLE16=Sweeter Than You
TTITLE17=Believe What You Say
EXTD=
EXTT0=
EXTT1=
EXTT2=
EXTT3=
EXTT4=
EXTT5=
EXTT6=
EXTT7=
EXTT8=
EXTT9=
EXTT10=
EXTT11=
EXTT12=
EXTT13=
EXTT14=
EXTT15=
EXTT16=
EXTT17=
PLAYORDER=
